<svg width="24" height="24" viewBox="0 0 24 24" fill="none" xmlns="http://www.w3.org/2000/svg">
<path fill-rule="evenodd" clip-rule="evenodd" d="M22.5 4.5C22.5 2.8425 21.1575 1.5 19.5 1.5H4.5C2.8425 1.5 1.5 2.8425 1.5 4.5V19.5C1.5 21.1575 2.8425 22.5 4.5 22.5H19.5C21.1575 22.5 22.5 21.1575 22.5 19.5V4.5Z" fill="#161616"/>
<path fill-rule="evenodd" clip-rule="evenodd" d="M14.6287 9.37878C16.08 9.37878 17.2575 10.5563 17.2575 12.0075C17.2575 13.4588 16.08 14.6363 14.6287 14.6363C13.1775 14.6363 12 13.4588 12 12.0075C12 10.5563 13.1775 9.37878 14.6287 9.37878Z" fill="#B7DDFE"/>
<path fill-rule="evenodd" clip-rule="evenodd" d="M17.2501 6.75C17.2501 5.29875 16.0763 4.125 14.6251 4.125H9.36755C7.9163 4.125 6.74255 5.29875 6.74255 6.75C6.74255 8.20125 7.9163 9.375 9.36755 9.375H14.6251C16.0763 9.375 17.2501 8.20125 17.2501 6.75Z" fill="#FF7568"/>
<path fill-rule="evenodd" clip-rule="evenodd" d="M11.9963 9.37878H9.36755C8.67005 9.37878 8.00255 9.65628 7.5113 10.1475C7.02005 10.6388 6.74255 11.3063 6.74255 12.0038C6.74255 12.7013 7.02005 13.3688 7.5113 13.86C8.00255 14.3513 8.67005 14.6288 9.36755 14.6288H11.9963V9.37878Z" fill="#AF5BFF"/>
<path fill-rule="evenodd" clip-rule="evenodd" d="M11.9963 4.125H9.36755C8.67005 4.125 8.00255 4.4025 7.5113 4.89375C7.02005 5.385 6.74255 6.0525 6.74255 6.75C6.74255 7.4475 7.02005 8.115 7.5113 8.60625C8.00255 9.0975 8.67005 9.375 9.36755 9.375H11.9963V4.125Z" fill="#FF4611"/>
<path fill-rule="evenodd" clip-rule="evenodd" d="M12 14.6212H9.37122C8.67372 14.6212 8.00622 14.8987 7.51497 15.39C7.02372 15.8812 6.74622 16.5487 6.74622 17.2462C6.74622 17.9437 7.02372 18.6112 7.51497 19.1025C8.00622 19.5937 8.67372 19.8712 9.37122 19.8712C10.0687 19.8712 10.7362 19.5937 11.2275 19.1025C11.7187 18.6112 11.9962 17.9437 11.9962 17.2462V14.6212H12Z" fill="#00E681"/>
</svg>
